<svg width="10" height="10" viewBox="0 0 10 10" fill="none" xmlns="http://www.w3.org/2000/svg">
<g clip-path="url(#clip0_18610_106)">
<path d="M5.00583 0.814728C5.85829 1.91697 6.31334 3.27622 6.29684 4.67098V5.00392L6.57809 5.17822C6.94149 5.40228 7.21251 5.7498 7.34177 6.15746C7.22828 6.07236 7.10955 5.99452 6.9863 5.9244L6.2363 5.4955L6.10153 6.36114C6.08986 6.43764 6.07421 6.51347 6.05466 6.58833H3.95309C3.92184 6.4904 3.89645 6.39248 3.87302 6.29064L3.70309 5.50725L3.01169 5.89894C2.89618 5.96473 2.78465 6.03732 2.6777 6.11633C2.80948 5.71339 3.07484 5.36782 3.42966 5.13709L3.69723 4.96279V4.65335C3.70206 3.26425 4.16259 1.91534 5.00778 0.814728H5.00583ZM5.00778 0C4.96395 0.000108419 4.92163 0.0161071 4.88864 0.045045L4.87106 0.0607129C3.74481 1.32379 3.11941 2.95706 3.11325 4.65139C2.63532 4.96232 2.28155 5.43176 2.11375 5.97769C1.94596 6.52362 1.97482 7.11131 2.19528 7.63807C2.42753 7.12374 2.81577 6.69606 3.30466 6.41598C3.35369 6.62895 3.41898 6.83782 3.49997 7.04074C3.51024 7.07974 3.53301 7.11429 3.56476 7.13906C3.59652 7.16383 3.63552 7.17745 3.67575 7.17783H6.38669C6.44137 7.17783 6.49606 7.12495 6.52341 7.04269C6.60245 6.84977 6.65755 6.64784 6.68747 6.44144C7.17729 6.72035 7.56585 7.14838 7.79684 7.66353C8.03061 7.13937 8.0668 6.54796 7.89871 5.99907C7.73061 5.45018 7.36964 4.98107 6.88278 4.67881C6.9021 2.97449 6.28001 1.3255 5.14059 0.0607129C5.12363 0.0416902 5.10286 0.0264555 5.07964 0.0159964C5.05643 0.00553734 5.03128 8.74302e-05 5.00583 0L5.00778 0Z" fill="#4EA8DE"/>
<path d="M5.00584 4.48884C4.85582 4.48883 4.70916 4.44429 4.58435 4.36084C4.45954 4.27738 4.36216 4.15874 4.30448 4.01987C4.24681 3.88101 4.23143 3.72813 4.26027 3.5805C4.28911 3.43288 4.36089 3.29713 4.46656 3.19035C4.57223 3.08357 4.70706 3.01056 4.85406 2.9805C5.00105 2.95044 5.15362 2.9647 5.29255 3.02146C5.43148 3.07822 5.55054 3.17495 5.63472 3.29946C5.7189 3.42397 5.76445 3.57069 5.7656 3.72111V3.72111C5.76794 3.81859 5.7511 3.91558 5.71604 4.00654C5.68098 4.09749 5.6284 4.18063 5.56129 4.25119C5.49418 4.32176 5.41386 4.37838 5.32492 4.41781C5.23598 4.45724 5.14016 4.47871 5.04295 4.481C5.03066 4.48298 5.01813 4.48298 5.00584 4.481V4.48884Z" fill="#4EA8DE"/>
<path d="M6.0625 7.66549C6.01363 7.66392 5.96494 7.67216 5.91929 7.68971C5.87363 7.70727 5.83194 7.73379 5.79664 7.76772C5.76135 7.80165 5.73317 7.84231 5.71376 7.88731C5.69434 7.93231 5.68409 7.98074 5.68359 8.02977V9.18527C5.68359 9.28604 5.72351 9.38268 5.79457 9.45393C5.86563 9.52519 5.96201 9.56522 6.0625 9.56522C6.16299 9.56522 6.25937 9.52519 6.33043 9.45393C6.40149 9.38268 6.44141 9.28604 6.44141 9.18527V8.04544C6.44297 7.9966 6.43482 7.94793 6.41743 7.90228C6.40004 7.85663 6.37377 7.81491 6.34014 7.77954C6.30651 7.74418 6.26619 7.71588 6.22154 7.6963C6.17689 7.67672 6.1288 7.66625 6.08008 7.66549H6.0625Z" fill="#5E60CE"/>
<path d="M3.95312 7.66549C3.90343 7.66285 3.8537 7.67027 3.80692 7.68729C3.76014 7.70432 3.71725 7.73061 3.6808 7.7646C3.64436 7.79858 3.6151 7.83957 3.59478 7.88513C3.57446 7.93068 3.56348 7.97987 3.5625 8.02977V9.18527C3.5625 9.28604 3.60242 9.38268 3.67348 9.45393C3.74454 9.52519 3.84091 9.56522 3.94141 9.56522C4.0419 9.56522 4.13827 9.52519 4.20933 9.45393C4.28039 9.38268 4.32031 9.28604 4.32031 9.18527V8.04544C4.32187 7.99659 4.31372 7.94793 4.29634 7.90228C4.27895 7.85663 4.25268 7.81491 4.21904 7.77954C4.18541 7.74418 4.1451 7.71588 4.10045 7.6963C4.0558 7.67672 4.00771 7.66624 3.95898 7.66549H3.95312Z" fill="#5E60CE"/>
<path d="M4.97852 7.66549C4.92978 7.66445 4.88132 7.67305 4.8359 7.69079C4.79048 7.70854 4.74899 7.73509 4.7138 7.76891C4.67861 7.80274 4.65042 7.84319 4.63083 7.88795C4.61123 7.93271 4.60062 7.9809 4.59961 8.02977V9.62201C4.59961 9.72278 4.63953 9.81942 4.71059 9.89067C4.78165 9.96193 4.87802 10.002 4.97852 10.002C5.07901 10.002 5.17538 9.96193 5.24644 9.89067C5.3175 9.81942 5.35742 9.72278 5.35742 9.62201V8.05523C5.35898 8.00639 5.35083 7.95772 5.33345 7.91207C5.31606 7.86642 5.28979 7.8247 5.25615 7.78933C5.22252 7.75397 5.18221 7.72567 5.13756 7.70609C5.09291 7.68651 5.04482 7.67604 4.99609 7.67528L4.97852 7.66549Z" fill="#5E60CE"/>
</g>
<defs>
<clipPath id="clip0_18610_106">
<rect width="6" height="10" fill="white" transform="translate(2)"/>
</clipPath>
</defs>
</svg>
